solid ASCII
  facet normal -1.000000e+00 0.000000e+00 0.000000e+00
    outer loop
      vertex   -9.000000e-01 9.000000e-01 1.500000e+00
      vertex   -9.000000e-01 -9.000000e-01 1.500000e+00
      vertex   -9.000000e-01 9.000000e-01 2.250000e+00
    endloop
  endfacet
  facet normal -1.000000e+00 -0.000000e+00 0.000000e+00
    outer loop
      vertex   -9.000000e-01 9.000000e-01 2.250000e+00
      vertex   -9.000000e-01 -9.000000e-01 1.500000e+00
      vertex   -9.000000e-01 -9.000000e-01 2.250000e+00
    endloop
  endfacet
  facet normal 0.000000e+00 -1.000000e+00 0.000000e+00
    outer loop
      vertex   -9.000000e-01 -9.000000e-01 1.500000e+00
      vertex   9.000000e-01 -9.000000e-01 1.500000e+00
      vertex   -9.000000e-01 -9.000000e-01 2.250000e+00
    endloop
  endfacet
  facet normal 0.000000e+00 -1.000000e+00 0.000000e+00
    outer loop
      vertex   -9.000000e-01 -9.000000e-01 2.250000e+00
      vertex   9.000000e-01 -9.000000e-01 1.500000e+00
      vertex   9.000000e-01 -9.000000e-01 2.250000e+00
    endloop
  endfacet
  facet normal 0.000000e+00 1.000000e+00 -0.000000e+00
    outer loop
      vertex   9.000000e-01 9.000000e-01 1.500000e+00
      vertex   -9.000000e-01 9.000000e-01 1.500000e+00
      vertex   9.000000e-01 9.000000e-01 2.250000e+00
    endloop
  endfacet
  facet normal 0.000000e+00 1.000000e+00 0.000000e+00
    outer loop
      vertex   9.000000e-01 9.000000e-01 2.250000e+00
      vertex   -9.000000e-01 9.000000e-01 1.500000e+00
      vertex   -9.000000e-01 9.000000e-01 2.250000e+00
    endloop
  endfacet
  facet normal 1.000000e+00 0.000000e+00 0.000000e+00
    outer loop
      vertex   9.000000e-01 -9.000000e-01 1.500000e+00
      vertex   9.000000e-01 9.000000e-01 1.500000e+00
      vertex   9.000000e-01 -9.000000e-01 2.250000e+00
    endloop
  endfacet
  facet normal 1.000000e+00 -0.000000e+00 0.000000e+00
    outer loop
      vertex   9.000000e-01 -9.000000e-01 2.250000e+00
      vertex   9.000000e-01 9.000000e-01 1.500000e+00
      vertex   9.000000e-01 9.000000e-01 2.250000e+00
    endloop
  endfacet
  facet normal 0.000000e+00 0.000000e+00 1.000000e+00
    outer loop
      vertex   -9.000000e-01 -9.000000e-01 2.250000e+00
      vertex   9.000000e-01 -9.000000e-01 2.250000e+00
      vertex   -9.000000e-01 9.000000e-01 2.250000e+00
    endloop
  endfacet
  facet normal -0.000000e+00 0.000000e+00 1.000000e+00
    outer loop
      vertex   -9.000000e-01 9.000000e-01 2.250000e+00
      vertex   9.000000e-01 -9.000000e-01 2.250000e+00
      vertex   9.000000e-01 9.000000e-01 2.250000e+00
    endloop
  endfacet
  facet normal -1.000000e+00 0.000000e+00 0.000000e+00
    outer loop
      vertex   -2.400000e+00 2.400000e+00 0.000000e+00
      vertex   -2.400000e+00 -2.400000e+00 0.000000e+00
      vertex   -2.400000e+00 2.400000e+00 1.500000e+00
    endloop
  endfacet
  facet normal -1.000000e+00 -0.000000e+00 0.000000e+00
    outer loop
      vertex   -2.400000e+00 2.400000e+00 1.500000e+00
      vertex   -2.400000e+00 -2.400000e+00 0.000000e+00
      vertex   -2.400000e+00 -2.400000e+00 1.500000e+00
    endloop
  endfacet
  facet normal 0.000000e+00 1.000000e+00 -0.000000e+00
    outer loop
      vertex   2.400000e+00 2.400000e+00 0.000000e+00
      vertex   -2.400000e+00 2.400000e+00 0.000000e+00
      vertex   2.400000e+00 2.400000e+00 1.500000e+00
    endloop
  endfacet
  facet normal 0.000000e+00 1.000000e+00 0.000000e+00
    outer loop
      vertex   2.400000e+00 2.400000e+00 1.500000e+00
      vertex   -2.400000e+00 2.400000e+00 0.000000e+00
      vertex   -2.400000e+00 2.400000e+00 1.500000e+00
    endloop
  endfacet
  facet normal 1.000000e+00 0.000000e+00 0.000000e+00
    outer loop
      vertex   2.400000e+00 -2.400000e+00 0.000000e+00
      vertex   2.400000e+00 2.400000e+00 0.000000e+00
      vertex   2.400000e+00 -2.400000e+00 1.500000e+00
    endloop
  endfacet
  facet normal 1.000000e+00 -0.000000e+00 0.000000e+00
    outer loop
      vertex   2.400000e+00 -2.400000e+00 1.500000e+00
      vertex   2.400000e+00 2.400000e+00 0.000000e+00
      vertex   2.400000e+00 2.400000e+00 1.500000e+00
    endloop
  endfacet
  facet normal 0.000000e+00 -1.000000e+00 0.000000e+00
    outer loop
      vertex   -2.400000e+00 -2.400000e+00 0.000000e+00
      vertex   2.400000e+00 -2.400000e+00 0.000000e+00
      vertex   -2.400000e+00 -2.400000e+00 1.500000e+00
    endloop
  endfacet
  facet normal 0.000000e+00 -1.000000e+00 0.000000e+00
    outer loop
      vertex   -2.400000e+00 -2.400000e+00 1.500000e+00
      vertex   2.400000e+00 -2.400000e+00 0.000000e+00
      vertex   2.400000e+00 -2.400000e+00 1.500000e+00
    endloop
  endfacet
  facet normal 0.000000e+00 0.000000e+00 1.000000e+00
    outer loop
      vertex   9.000000e-01 9.000000e-01 1.500000e+00
      vertex   9.000000e-01 -9.000000e-01 1.500000e+00
      vertex   2.400000e+00 -2.400000e+00 1.500000e+00
    endloop
  endfacet
  facet normal 0.000000e+00 0.000000e+00 1.000000e+00
    outer loop
      vertex   2.400000e+00 -2.400000e+00 1.500000e+00
      vertex   9.000000e-01 -9.000000e-01 1.500000e+00
      vertex   -9.000000e-01 -9.000000e-01 1.500000e+00
    endloop
  endfacet
  facet normal 0.000000e+00 0.000000e+00 1.000000e+00
    outer loop
      vertex   2.400000e+00 -2.400000e+00 1.500000e+00
      vertex   -9.000000e-01 -9.000000e-01 1.500000e+00
      vertex   -2.400000e+00 -2.400000e+00 1.500000e+00
    endloop
  endfacet
  facet normal 0.000000e+00 0.000000e+00 1.000000e+00
    outer loop
      vertex   -2.400000e+00 -2.400000e+00 1.500000e+00
      vertex   -9.000000e-01 -9.000000e-01 1.500000e+00
      vertex   -9.000000e-01 9.000000e-01 1.500000e+00
    endloop
  endfacet
  facet normal 0.000000e+00 0.000000e+00 1.000000e+00
    outer loop
      vertex   -2.400000e+00 -2.400000e+00 1.500000e+00
      vertex   -9.000000e-01 9.000000e-01 1.500000e+00
      vertex   -2.400000e+00 2.400000e+00 1.500000e+00
    endloop
  endfacet
  facet normal 0.000000e+00 0.000000e+00 1.000000e+00
    outer loop
      vertex   -2.400000e+00 2.400000e+00 1.500000e+00
      vertex   -9.000000e-01 9.000000e-01 1.500000e+00
      vertex   9.000000e-01 9.000000e-01 1.500000e+00
    endloop
  endfacet
  facet normal -0.000000e+00 0.000000e+00 1.000000e+00
    outer loop
      vertex   -2.400000e+00 2.400000e+00 1.500000e+00
      vertex   9.000000e-01 9.000000e-01 1.500000e+00
      vertex   2.400000e+00 2.400000e+00 1.500000e+00
    endloop
  endfacet
  facet normal 0.000000e+00 0.000000e+00 1.000000e+00
    outer loop
      vertex   2.400000e+00 2.400000e+00 1.500000e+00
      vertex   9.000000e-01 9.000000e-01 1.500000e+00
      vertex   2.400000e+00 -2.400000e+00 1.500000e+00
    endloop
  endfacet
  facet normal 0.000000e+00 0.000000e+00 -1.000000e+00
    outer loop
      vertex   2.400000e+00 -2.400000e+00 0.000000e+00
      vertex   -2.400000e+00 -2.400000e+00 0.000000e+00
      vertex   2.400000e+00 2.400000e+00 0.000000e+00
    endloop
  endfacet
  facet normal -0.000000e+00 0.000000e+00 -1.000000e+00
    outer loop
      vertex   2.400000e+00 2.400000e+00 0.000000e+00
      vertex   -2.400000e+00 -2.400000e+00 0.000000e+00
      vertex   -2.400000e+00 2.400000e+00 0.000000e+00
    endloop
  endfacet
endsolid
