solid ASCII
  facet normal 0.000000e+00 0.000000e+00 1.000000e+00
    outer loop
      vertex   1.520000e+00 1.520000e+00 7.500000e-01
      vertex   -1.520000e+00 1.520000e+00 7.500000e-01
      vertex   1.520000e+00 -1.520000e+00 7.500000e-01
    endloop
  endfacet
  facet normal 0.000000e+00 0.000000e+00 1.000000e+00
    outer loop
      vertex   1.520000e+00 -1.520000e+00 7.500000e-01
      vertex   -1.520000e+00 1.520000e+00 7.500000e-01
      vertex   -1.520000e+00 -1.520000e+00 7.500000e-01
    endloop
  endfacet
  facet normal 0.000000e+00 1.000000e+00 -0.000000e+00
    outer loop
      vertex   1.520000e+00 -1.520000e+00 7.500000e-01
      vertex   -1.520000e+00 -1.520000e+00 7.500000e-01
      vertex   1.520000e+00 -1.520000e+00 1.500000e+00
    endloop
  endfacet
  facet normal 0.000000e+00 1.000000e+00 0.000000e+00
    outer loop
      vertex   1.520000e+00 -1.520000e+00 1.500000e+00
      vertex   -1.520000e+00 -1.520000e+00 7.500000e-01
      vertex   -1.520000e+00 -1.520000e+00 1.500000e+00
    endloop
  endfacet
  facet normal 1.000000e+00 0.000000e+00 0.000000e+00
    outer loop
      vertex   -1.520000e+00 -1.520000e+00 7.500000e-01
      vertex   -1.520000e+00 1.520000e+00 7.500000e-01
      vertex   -1.520000e+00 -1.520000e+00 1.500000e+00
    endloop
  endfacet
  facet normal 1.000000e+00 -0.000000e+00 0.000000e+00
    outer loop
      vertex   -1.520000e+00 -1.520000e+00 1.500000e+00
      vertex   -1.520000e+00 1.520000e+00 7.500000e-01
      vertex   -1.520000e+00 1.520000e+00 1.500000e+00
    endloop
  endfacet
  facet normal -1.000000e+00 0.000000e+00 0.000000e+00
    outer loop
      vertex   1.520000e+00 1.520000e+00 7.500000e-01
      vertex   1.520000e+00 -1.520000e+00 7.500000e-01
      vertex   1.520000e+00 1.520000e+00 1.500000e+00
    endloop
  endfacet
  facet normal -1.000000e+00 -0.000000e+00 0.000000e+00
    outer loop
      vertex   1.520000e+00 1.520000e+00 1.500000e+00
      vertex   1.520000e+00 -1.520000e+00 7.500000e-01
      vertex   1.520000e+00 -1.520000e+00 1.500000e+00
    endloop
  endfacet
  facet normal 0.000000e+00 -1.000000e+00 0.000000e+00
    outer loop
      vertex   -1.520000e+00 1.520000e+00 7.500000e-01
      vertex   1.520000e+00 1.520000e+00 7.500000e-01
      vertex   -1.520000e+00 1.520000e+00 1.500000e+00
    endloop
  endfacet
  facet normal 0.000000e+00 -1.000000e+00 0.000000e+00
    outer loop
      vertex   -1.520000e+00 1.520000e+00 1.500000e+00
      vertex   1.520000e+00 1.520000e+00 7.500000e-01
      vertex   1.520000e+00 1.520000e+00 1.500000e+00
    endloop
  endfacet
  facet normal -1.000000e+00 0.000000e+00 0.000000e+00
    outer loop
      vertex   -2.400000e+00 2.400000e+00 0.000000e+00
      vertex   -2.400000e+00 -2.400000e+00 0.000000e+00
      vertex   -2.400000e+00 2.400000e+00 1.500000e+00
    endloop
  endfacet
  facet normal -1.000000e+00 -0.000000e+00 0.000000e+00
    outer loop
      vertex   -2.400000e+00 2.400000e+00 1.500000e+00
      vertex   -2.400000e+00 -2.400000e+00 0.000000e+00
      vertex   -2.400000e+00 -2.400000e+00 1.500000e+00
    endloop
  endfacet
  facet normal 0.000000e+00 1.000000e+00 -0.000000e+00
    outer loop
      vertex   2.400000e+00 2.400000e+00 0.000000e+00
      vertex   -2.400000e+00 2.400000e+00 0.000000e+00
      vertex   2.400000e+00 2.400000e+00 1.500000e+00
    endloop
  endfacet
  facet normal 0.000000e+00 1.000000e+00 0.000000e+00
    outer loop
      vertex   2.400000e+00 2.400000e+00 1.500000e+00
      vertex   -2.400000e+00 2.400000e+00 0.000000e+00
      vertex   -2.400000e+00 2.400000e+00 1.500000e+00
    endloop
  endfacet
  facet normal 1.000000e+00 0.000000e+00 -2.960595e-16
    outer loop
      vertex   2.400000e+00 -2.400000e+00 0.000000e+00
      vertex   2.400000e+00 2.400000e+00 0.000000e+00
      vertex   2.400000e+00 -2.400000e+00 1.500000e+00
    endloop
  endfacet
  facet normal 1.000000e+00 0.000000e+00 -2.960595e-16
    outer loop
      vertex   2.400000e+00 -2.400000e+00 1.500000e+00
      vertex   2.400000e+00 2.400000e+00 0.000000e+00
      vertex   2.400000e+00 2.400000e+00 1.500000e+00
    endloop
  endfacet
  facet normal 0.000000e+00 -1.000000e+00 -2.960595e-16
    outer loop
      vertex   -2.400000e+00 -2.400000e+00 0.000000e+00
      vertex   2.400000e+00 -2.400000e+00 0.000000e+00
      vertex   -2.400000e+00 -2.400000e+00 1.500000e+00
    endloop
  endfacet
  facet normal 0.000000e+00 -1.000000e+00 -2.960595e-16
    outer loop
      vertex   -2.400000e+00 -2.400000e+00 1.500000e+00
      vertex   2.400000e+00 -2.400000e+00 0.000000e+00
      vertex   2.400000e+00 -2.400000e+00 1.500000e+00
    endloop
  endfacet
  facet normal 0.000000e+00 0.000000e+00 1.000000e+00
    outer loop
      vertex   1.520000e+00 1.520000e+00 1.500000e+00
      vertex   -2.400000e+00 2.400000e+00 1.500000e+00
      vertex   -1.520000e+00 1.520000e+00 1.500000e+00
    endloop
  endfacet
  facet normal 0.000000e+00 0.000000e+00 1.000000e+00
    outer loop
      vertex   -1.520000e+00 1.520000e+00 1.500000e+00
      vertex   -2.400000e+00 2.400000e+00 1.500000e+00
      vertex   -2.400000e+00 -2.400000e+00 1.500000e+00
    endloop
  endfacet
  facet normal 0.000000e+00 0.000000e+00 1.000000e+00
    outer loop
      vertex   -1.520000e+00 1.520000e+00 1.500000e+00
      vertex   -2.400000e+00 -2.400000e+00 1.500000e+00
      vertex   -1.520000e+00 -1.520000e+00 1.500000e+00
    endloop
  endfacet
  facet normal 0.000000e+00 0.000000e+00 1.000000e+00
    outer loop
      vertex   -1.520000e+00 -1.520000e+00 1.500000e+00
      vertex   -2.400000e+00 -2.400000e+00 1.500000e+00
      vertex   2.400000e+00 -2.400000e+00 1.500000e+00
    endloop
  endfacet
  facet normal -0.000000e+00 0.000000e+00 1.000000e+00
    outer loop
      vertex   -1.520000e+00 -1.520000e+00 1.500000e+00
      vertex   2.400000e+00 -2.400000e+00 1.500000e+00
      vertex   1.520000e+00 -1.520000e+00 1.500000e+00
    endloop
  endfacet
  facet normal -0.000000e+00 0.000000e+00 1.000000e+00
    outer loop
      vertex   1.520000e+00 -1.520000e+00 1.500000e+00
      vertex   2.400000e+00 -2.400000e+00 1.500000e+00
      vertex   1.520000e+00 1.520000e+00 1.500000e+00
    endloop
  endfacet
  facet normal -0.000000e+00 0.000000e+00 1.000000e+00
    outer loop
      vertex   1.520000e+00 1.520000e+00 1.500000e+00
      vertex   2.400000e+00 -2.400000e+00 1.500000e+00
      vertex   2.400000e+00 2.400000e+00 1.500000e+00
    endloop
  endfacet
  facet normal 0.000000e+00 -0.000000e+00 1.000000e+00
    outer loop
      vertex   1.520000e+00 1.520000e+00 1.500000e+00
      vertex   2.400000e+00 2.400000e+00 1.500000e+00
      vertex   -2.400000e+00 2.400000e+00 1.500000e+00
    endloop
  endfacet
  facet normal 0.000000e+00 0.000000e+00 -1.000000e+00
    outer loop
      vertex   2.400000e+00 -2.400000e+00 0.000000e+00
      vertex   -2.400000e+00 -2.400000e+00 0.000000e+00
      vertex   2.400000e+00 2.400000e+00 0.000000e+00
    endloop
  endfacet
  facet normal -0.000000e+00 0.000000e+00 -1.000000e+00
    outer loop
      vertex   2.400000e+00 2.400000e+00 0.000000e+00
      vertex   -2.400000e+00 -2.400000e+00 0.000000e+00
      vertex   -2.400000e+00 2.400000e+00 0.000000e+00
    endloop
  endfacet
endsolid
